<?xml version="1.0" standalone="no"?>
<!DOCTYPE svg PUBLIC "-//W3C//DTD SVG 20010904//EN"
 "http://www.w3.org/TR/2001/REC-SVG-20010904/DTD/svg10.dtd">
<svg version="1.0" xmlns="http://www.w3.org/2000/svg"
 width="350.000000pt" height="508.000000pt" viewBox="0 0 350.000000 508.000000"
 preserveAspectRatio="xMidYMid meet">

<g transform="translate(0.000000,508.000000) scale(0.100000,-0.100000)"
fill="#000000" stroke="none">
<path d="M1898 4980 c-31 -5 -87 -23 -125 -41 -63 -30 -71 -31 -143 -24 -41 4
-100 6 -131 6 -31 -1 -82 5 -115 14 -73 19 -188 19 -276 0 -116 -24 -168 -68
-320 -273 -150 -201 -208 -303 -208 -363 0 -52 -24 -97 -105 -192 -84 -101
-133 -198 -152 -302 -18 -101 -10 -169 29 -258 55 -127 58 -142 47 -205 -14
-73 -33 -96 -77 -88 -18 3 -45 0 -60 -5 l-27 -10 23 -18 c18 -13 22 -23 17
-44 -4 -15 -11 -27 -16 -27 -5 0 -9 -4 -9 -10 0 -5 7 -10 15 -10 38 0 -5 -71
-83 -136 -31 -26 -61 -52 -67 -57 -6 -6 7 -7 37 -3 51 8 68 -4 46 -31 -12 -15
-10 -16 12 -9 60 18 70 19 70 3 0 -9 -21 -31 -47 -49 l-48 -33 40 -5 c55 -8
81 -25 93 -59 9 -25 17 -31 55 -36 24 -4 49 -10 56 -14 15 -10 30 -72 31 -127
0 -46 33 -98 89 -139 44 -32 53 -32 41 1 -10 24 -9 26 12 20 13 -3 33 -6 46
-6 21 0 23 -4 20 -37 l-3 -38 43 2 c36 2 42 -1 42 -19 0 -18 4 -20 41 -15 22
3 49 13 59 22 28 26 52 14 80 -37 14 -26 35 -60 48 -75 l23 -28 -6 142 c-3 78
-10 168 -15 200 -6 32 -19 135 -30 228 -11 94 -24 186 -29 205 -8 33 -8 34
-14 10 -3 -14 -8 -50 -12 -80 -3 -30 -11 -70 -16 -88 -9 -27 -8 -37 4 -50 54
-59 27 -132 -48 -132 -17 0 -38 6 -47 13 -31 24 -128 171 -138 209 -14 51 -9
170 8 176 9 3 12 -13 12 -56 0 -42 5 -65 16 -76 21 -21 36 -11 28 19 -9 35 4
65 28 65 11 0 34 -16 51 -35 28 -32 64 -45 80 -29 3 3 -1 27 -9 52 -7 26 -14
63 -14 83 0 46 47 143 99 202 36 42 39 50 45 129 11 140 26 226 57 321 16 49
29 95 29 101 0 6 -13 39 -29 72 -21 45 -32 88 -40 163 -24 225 -16 256 93 357
116 106 143 117 293 120 68 1 123 0 123 -2 0 -3 -10 -9 -22 -14 -22 -8 -22 -9
5 -9 98 -3 -86 -91 -196 -94 -29 -1 -61 2 -72 6 -18 8 -17 6 3 -11 47 -42 219
-41 338 2 46 17 78 37 107 66 22 24 65 54 96 67 31 13 76 34 101 46 52 25 183
35 266 20 57 -11 144 -1 246 28 36 10 75 19 86 19 12 0 51 -26 89 -58 37 -32
91 -75 120 -95 69 -51 97 -85 123 -154 12 -32 34 -71 49 -88 59 -64 111 -184
111 -256 0 -41 8 -69 20 -69 4 0 15 18 25 41 16 35 17 47 7 85 -7 24 -12 64
-12 88 0 60 -12 89 -65 151 -41 48 -45 56 -45 107 0 52 -4 62 -72 163 -87 131
-107 145 -206 145 -68 0 -76 2 -100 29 -15 15 -34 39 -43 53 -10 13 -68 52
-130 85 -86 46 -132 64 -184 73 -96 17 -199 20 -267 10z"/>
<path d="M2945 3650 c-5 -8 -12 -80 -16 -160 -9 -178 -44 -416 -110 -744 -27
-137 -48 -250 -46 -252 1 -2 28 21 59 50 35 33 58 65 63 85 6 30 60 80 72 67
4 -3 -9 -22 -28 -42 -31 -32 -33 -36 -16 -45 14 -8 17 -18 12 -40 -9 -40 1
-36 24 9 11 20 40 57 66 82 38 37 47 42 55 30 5 -8 10 -21 10 -27 0 -26 20
-12 20 15 0 15 9 47 20 71 24 52 26 67 15 142 -6 50 -5 59 14 78 25 25 66 20
94 -11 28 -33 28 -17 1 58 -14 38 -27 76 -30 84 -3 9 4 19 18 25 13 6 24 20
26 33 2 14 10 22 23 22 15 0 19 7 19 37 0 30 8 45 40 78 l41 42 -54 -5 -54 -4
-36 50 c-20 28 -60 66 -89 85 -60 38 -104 79 -164 151 -31 38 -42 47 -49 36z"/>
<path d="M1402 3589 c-27 -15 -61 -44 -77 -64 -16 -22 -50 -47 -80 -61 -75
-34 -79 -42 -58 -99 17 -44 23 -50 87 -78 61 -28 71 -29 100 -18 60 25 63 24
69 -7 7 -32 51 -56 126 -68 66 -11 201 39 176 65 -7 7 -26 6 -59 -4 -97 -29
-196 -8 -196 41 0 31 15 30 52 -1 34 -29 66 -32 109 -10 20 11 32 26 36 46 3
17 11 33 18 36 7 2 40 -9 74 -26 33 -17 63 -31 66 -31 3 0 10 12 16 27 l10 28
20 -25 c10 -14 22 -41 25 -61 8 -48 19 -63 38 -56 19 7 21 41 5 86 -9 25 -9
35 1 44 10 9 14 9 17 0 11 -30 42 -58 52 -48 14 14 -5 184 -23 205 -8 8 -16
26 -18 40 -2 18 -15 31 -46 47 -40 20 -56 21 -267 20 l-225 -1 -48 -27z m202
-163 c-17 -8 -46 -17 -65 -21 -19 -4 -40 -12 -46 -17 -20 -16 -16 7 5 24 24
22 41 26 92 27 l45 0 -31 -13z m56 -87 c0 -6 -4 -7 -10 -4 -5 3 -10 11 -10 16
0 6 5 7 10 4 6 -3 10 -11 10 -16z"/>
<path d="M2339 3557 c-19 -19 -44 -39 -54 -45 -16 -9 -17 -14 -7 -36 8 -18 9
-46 2 -98 -10 -83 1 -109 38 -89 16 9 23 7 36 -12 l15 -22 20 23 c24 28 32 28
61 -3 35 -37 93 -35 130 5 15 17 31 30 36 30 4 0 31 -18 60 -40 44 -33 61 -40
99 -40 l47 0 -7 40 c-6 34 -2 45 24 82 42 61 48 91 21 118 -13 13 -30 20 -40
17 -29 -8 -145 18 -259 58 -57 20 -122 38 -145 41 -36 4 -45 1 -77 -29z m325
-184 c41 -12 62 -24 69 -40 15 -32 1 -40 -26 -15 -29 27 -89 52 -126 52 -34 0
-50 16 -24 23 22 5 31 4 107 -20z m-99 -53 c3 -5 -1 -10 -9 -10 -9 0 -16 5
-16 10 0 6 4 10 9 10 6 0 13 -4 16 -10z"/>
<path d="M2440 3206 c0 -8 11 -23 25 -32 28 -18 99 -13 130 10 16 11 11 14
-37 19 -30 4 -68 10 -86 13 -25 5 -32 3 -32 -10z"/>
<path d="M1739 3054 c-18 -22 -64 -44 -93 -44 -22 0 -113 26 -158 45 -13 5
-18 3 -18 -8 0 -36 151 -95 213 -83 54 10 129 106 83 106 -7 0 -19 -7 -27 -16z"/>
<path d="M2420 3025 c24 -29 104 -75 130 -75 44 0 86 19 100 45 18 34 10 38
-36 19 -43 -18 -108 -14 -157 11 -38 19 -53 19 -37 0z"/>
<path d="M2365 2808 c0 -29 -4 -61 -9 -72 -8 -16 -6 -17 12 -12 14 5 33 1 51
-10 16 -9 36 -14 46 -10 16 6 16 8 1 29 -9 12 -24 38 -33 57 -41 85 -68 92
-68 18z"/>
<path d="M1890 2753 c0 -22 9 -49 20 -63 24 -31 25 -71 4 -113 -27 -54 -54
-77 -90 -77 -18 0 -39 -7 -46 -16 -7 -9 -34 -38 -60 -65 -55 -57 -61 -85 -21
-100 22 -8 36 -6 69 10 23 12 61 21 85 21 24 0 76 7 115 15 79 16 336 19 419
4 37 -7 56 -17 75 -39 20 -25 28 -28 38 -18 29 29 -4 120 -51 138 -58 21 -62
26 -68 76 -3 27 -18 75 -33 106 -24 50 -30 57 -46 48 -22 -12 -102 2 -186 30
-32 11 -72 20 -91 20 -37 0 -82 19 -102 44 -21 26 -31 19 -31 -21z m280 -298
c0 -8 -8 -15 -19 -15 -10 0 -24 7 -31 15 -11 13 -8 15 19 15 21 0 31 -5 31
-15z"/>
<path d="M2000 2316 c-32 -32 0 -52 95 -61 60 -5 75 -3 103 14 34 22 40 35 20
47 -18 11 -207 11 -218 0z"/>
<path d="M994 2083 c-11 -25 -15 -59 -13 -98 6 -123 3 -149 -23 -186 -23 -35
-24 -42 -20 -146 4 -101 2 -113 -23 -178 -26 -63 -27 -72 -15 -110 7 -22 13
-76 15 -120 4 -137 36 -175 171 -203 28 -6 99 -32 157 -56 140 -60 167 -65
334 -66 137 0 143 -1 154 -22 7 -13 28 -41 48 -63 l36 -40 3 -221 c2 -140 -1
-230 -8 -248 -6 -16 -8 -31 -6 -34 9 -9 129 19 168 39 20 10 54 19 76 19 44 0
82 33 129 115 19 33 42 56 65 67 38 18 39 20 63 111 8 32 24 75 35 97 11 22
20 51 20 65 0 24 2 25 64 25 85 0 111 11 173 73 l53 51 174 -58 c172 -57 175
-58 231 -46 31 7 65 10 75 7 16 -4 17 2 13 62 -7 103 -18 128 -61 141 -20 7
-53 23 -72 36 -48 32 -223 94 -266 94 -19 0 -53 9 -76 21 l-41 21 7 115 c4 64
10 122 13 130 5 12 -2 13 -38 8 -43 -6 -46 -4 -124 60 -108 90 -121 95 -204
80 -36 -7 -68 -11 -71 -9 -2 3 1 14 8 24 20 33 14 48 -25 57 -32 8 -38 13 -36
34 1 24 0 24 -76 21 -140 -7 -338 43 -383 96 -25 29 -194 119 -204 109 -14
-14 31 -60 119 -126 107 -79 179 -155 213 -226 13 -27 22 -50 20 -52 -1 -1
-18 2 -37 7 -18 6 -50 10 -69 10 -31 1 -41 8 -87 68 -98 126 -144 166 -214
186 -78 21 -180 84 -279 172 -41 36 -92 79 -113 96 l-37 30 -16 -39z"/>
</g>
</svg>
